<svg width="153" height="153" viewBox="0 0 153 153" fill="none" xmlns="http://www.w3.org/2000/svg">
<path d="M35.0625 95.625C35.0625 93.8645 36.4895 92.4375 38.25 92.4375H82.875C84.6355 92.4375 86.0625 93.8645 86.0625 95.625C86.0625 97.3855 84.6355 98.8125 82.875 98.8125H38.25C36.4895 98.8125 35.0625 97.3855 35.0625 95.625Z" fill="#EC6C1E"/>
<path d="M38.25 108.375C36.4895 108.375 35.0625 109.802 35.0625 111.562C35.0625 113.323 36.4895 114.75 38.25 114.75H82.875C84.6355 114.75 86.0625 113.323 86.0625 111.562C86.0625 109.802 84.6355 108.375 82.875 108.375H38.25Z" fill="#EC6C1E"/>
<path d="M44.625 66.9375V57.375H51V66.9375H60.5625V73.3125H51V82.875H44.625V73.3125H35.0625V66.9375H44.625Z" fill="#EC6C1E"/>
<path fill-rule="evenodd" clip-rule="evenodd" d="M47.8125 19.125C42.5311 19.125 38.25 23.4063 38.25 28.6875H28.6875C23.4063 28.6875 19.125 32.9686 19.125 38.25V124.312C19.125 129.594 23.4063 133.875 28.6875 133.875H92.4375C97.7189 133.875 102 129.594 102 124.312V38.25C102 32.9686 97.7189 28.6875 92.4375 28.6875H82.875C82.875 23.4063 78.5939 19.125 73.3125 19.125H47.8125ZM73.3125 38.25C75.073 38.25 76.5 36.823 76.5 35.0625V28.6875C76.5 26.9271 75.073 25.5 73.3125 25.5H47.8125C46.052 25.5 44.625 26.9271 44.625 28.6875V35.0625C44.625 36.823 46.052 38.25 47.8125 38.25H73.3125ZM38.25 35.0625C38.25 40.3439 42.5311 44.625 47.8125 44.625H73.3125C78.5939 44.625 82.875 40.3439 82.875 35.0625H92.4375C94.198 35.0625 95.625 36.4895 95.625 38.25V124.312C95.625 126.073 94.198 127.5 92.4375 127.5H28.6875C26.9271 127.5 25.5 126.073 25.5 124.312V38.25C25.5 36.4895 26.9271 35.0625 28.6875 35.0625H38.25Z" fill="#EC6C1E"/>
<path fill-rule="evenodd" clip-rule="evenodd" d="M114.75 54.1875C114.75 48.9061 119.031 44.625 124.312 44.625C129.594 44.625 133.875 48.9061 133.875 54.1875V118.903L124.312 133.246L114.75 118.903V54.1875ZM124.312 51C122.552 51 121.125 52.427 121.125 54.1875V60.5625H127.5V54.1875C127.5 52.427 126.073 51 124.312 51ZM124.312 121.754L127.5 116.972V66.9375H121.125V116.972L124.312 121.754Z" fill="#EC6C1E"/>
</svg>
