<svg width="153" height="156" viewBox="0 0 153 156" fill="none" xmlns="http://www.w3.org/2000/svg">
<path fill-rule="evenodd" clip-rule="evenodd" d="M54.1875 78C66.5152 78 76.5 67.8194 76.5 55.25C76.5 42.6806 66.5152 32.5 54.1875 32.5C41.8598 32.5 31.875 42.6806 31.875 55.25C31.875 67.8194 41.8598 78 54.1875 78ZM70.125 55.25C70.125 64.2294 62.9942 71.5 54.1875 71.5C45.3808 71.5 38.25 64.2294 38.25 55.25C38.25 46.2706 45.3808 39 54.1875 39C62.9942 39 70.125 46.2706 70.125 55.25Z" fill="#EC6C1E"/>
<path fill-rule="evenodd" clip-rule="evenodd" d="M12.75 123.5V105.3C12.75 91.468 40.3576 84.5 54.1875 84.5C63.3873 84.5 78.6838 87.5833 87.895 93.7196C94.4603 91.9093 101.661 91 106.781 91C112.703 91 120.65 92.2161 127.211 94.6748C130.485 95.9023 133.616 97.513 135.986 99.6005C138.372 101.703 140.25 104.545 140.25 108.117V123.5H12.75ZM19.125 105.3C19.125 104.268 19.589 102.858 21.5672 101.025C23.5846 99.1559 26.6896 97.3411 30.6217 95.7596C38.4923 92.5945 48.0567 91 54.1875 91C60.3183 91 69.8828 92.5945 77.7533 95.7596C81.6854 97.3411 84.7904 99.1559 86.8077 101.025C88.7859 102.858 89.25 104.268 89.25 105.3V117H19.125V105.3ZM93.5633 99.0249C98.3844 98.0086 103.222 97.5 106.781 97.5C112.029 97.5 119.223 98.6066 125.011 100.776C127.911 101.862 130.255 103.142 131.818 104.519C133.364 105.881 133.875 107.078 133.875 108.117V117H95.625V105.3C95.625 103.022 94.8763 100.93 93.5633 99.0249Z" fill="#EC6C1E"/>
<path fill-rule="evenodd" clip-rule="evenodd" d="M124.312 66.625C124.312 76.5008 116.467 84.5 106.781 84.5C97.0954 84.5 89.25 76.5008 89.25 66.625C89.25 56.7489 97.0954 48.75 106.781 48.75C116.467 48.75 124.312 56.7489 124.312 66.625ZM106.781 78C112.947 78 117.938 72.9112 117.938 66.625C117.938 60.3388 112.947 55.25 106.781 55.25C100.616 55.25 95.625 60.3388 95.625 66.625C95.625 72.9112 100.616 78 106.781 78Z" fill="#EC6C1E"/>
</svg>
