<svg width="164" height="28" viewBox="0 0 164 28" fill="none" xmlns="http://www.w3.org/2000/svg">
<path d="M5.452 1.872V17.424C5.452 19.128 5.896 20.436 6.784 21.348C7.672 22.236 8.92 22.68 10.528 22.68C12.16 22.68 13.42 22.236 14.308 21.348C15.196 20.436 15.64 19.128 15.64 17.424V1.872H20.716V17.388C20.716 19.524 20.248 21.336 19.312 22.824C18.4 24.288 17.164 25.392 15.604 26.136C14.068 26.88 12.352 27.252 10.456 27.252C8.584 27.252 6.88 26.88 5.344 26.136C3.832 25.392 2.632 24.288 1.744 22.824C0.856 21.336 0.412 19.524 0.412 17.388V1.872H5.452ZM50.3536 6.768C52.8016 6.768 54.7696 7.524 56.2576 9.036C57.7696 10.524 58.5256 12.612 58.5256 15.3V27H53.4856V15.984C53.4856 14.424 53.0896 13.236 52.2976 12.42C51.5056 11.58 50.4256 11.16 49.0576 11.16C47.6896 11.16 46.5976 11.58 45.7816 12.42C44.9896 13.236 44.5936 14.424 44.5936 15.984V27H39.5536V15.984C39.5536 14.424 39.1576 13.236 38.3656 12.42C37.5736 11.58 36.4936 11.16 35.1256 11.16C33.7336 11.16 32.6296 11.58 31.8136 12.42C31.0216 13.236 30.6256 14.424 30.6256 15.984V27H25.5856V7.056H30.6256V9.468C31.2736 8.628 32.1016 7.968 33.1096 7.488C34.1416 7.008 35.2696 6.768 36.4936 6.768C38.0536 6.768 39.4456 7.104 40.6696 7.776C41.8936 8.424 42.8416 9.36 43.5136 10.584C44.1616 9.432 45.0976 8.508 46.3216 7.812C47.5696 7.116 48.9136 6.768 50.3536 6.768ZM68.3482 9.972C68.9962 9.012 69.8842 8.232 71.0122 7.632C72.1642 7.032 73.4722 6.732 74.9362 6.732C76.6402 6.732 78.1762 7.152 79.5442 7.992C80.9362 8.832 82.0282 10.032 82.8202 11.592C83.6362 13.128 84.0442 14.916 84.0442 16.956C84.0442 18.996 83.6362 20.808 82.8202 22.392C82.0282 23.952 80.9362 25.164 79.5442 26.028C78.1762 26.892 76.6402 27.324 74.9362 27.324C73.4482 27.324 72.1402 27.036 71.0122 26.46C69.9082 25.86 69.0202 25.092 68.3482 24.156V27H63.3082V0.36H68.3482V9.972ZM78.8962 16.956C78.8962 15.756 78.6442 14.724 78.1402 13.86C77.6602 12.972 77.0122 12.3 76.1962 11.844C75.4042 11.388 74.5402 11.16 73.6042 11.16C72.6922 11.16 71.8282 11.4 71.0122 11.88C70.2202 12.336 69.5722 13.008 69.0682 13.896C68.5882 14.784 68.3482 15.828 68.3482 17.028C68.3482 18.228 68.5882 19.272 69.0682 20.16C69.5722 21.048 70.2202 21.732 71.0122 22.212C71.8282 22.668 72.6922 22.896 73.6042 22.896C74.5402 22.896 75.4042 22.656 76.1962 22.176C77.0122 21.696 77.6602 21.012 78.1402 20.124C78.6442 19.236 78.8962 18.18 78.8962 16.956ZM92.7467 10.152C93.3947 9.096 94.2347 8.268 95.2667 7.668C96.3227 7.068 97.5227 6.768 98.8667 6.768V12.06H97.5347C95.9507 12.06 94.7507 12.432 93.9347 13.176C93.1427 13.92 92.7467 15.216 92.7467 17.064V27H87.7067V7.056H92.7467V10.152ZM120.801 16.596C120.801 17.316 120.753 17.964 120.657 18.54H106.077C106.197 19.98 106.701 21.108 107.589 21.924C108.477 22.74 109.569 23.148 110.865 23.148C112.737 23.148 114.069 22.344 114.861 20.736H120.297C119.721 22.656 118.617 24.24 116.985 25.488C115.353 26.712 113.349 27.324 110.973 27.324C109.053 27.324 107.325 26.904 105.789 26.064C104.277 25.2 103.089 23.988 102.225 22.428C101.385 20.868 100.965 19.068 100.965 17.028C100.965 14.964 101.385 13.152 102.225 11.592C103.065 10.032 104.241 8.832 105.753 7.992C107.265 7.152 109.005 6.732 110.973 6.732C112.869 6.732 114.561 7.14 116.049 7.956C117.561 8.772 118.725 9.936 119.541 11.448C120.381 12.936 120.801 14.652 120.801 16.596ZM115.581 15.156C115.557 13.86 115.089 12.828 114.177 12.06C113.265 11.268 112.149 10.872 110.829 10.872C109.581 10.872 108.525 11.256 107.661 12.024C106.821 12.768 106.305 13.812 106.113 15.156H115.581ZM129.52 0.36V27H124.48V0.36H129.52ZM139.54 0.36V27H134.5V0.36H139.54ZM143.223 16.956C143.223 14.94 143.619 13.152 144.411 11.592C145.227 10.032 146.319 8.832 147.687 7.992C149.079 7.152 150.627 6.732 152.331 6.732C153.819 6.732 155.115 7.032 156.219 7.632C157.347 8.232 158.247 8.988 158.919 9.9V7.056H163.995V27H158.919V24.084C158.271 25.02 157.371 25.8 156.219 26.424C155.091 27.024 153.783 27.324 152.295 27.324C150.615 27.324 149.079 26.892 147.687 26.028C146.319 25.164 145.227 23.952 144.411 22.392C143.619 20.808 143.223 18.996 143.223 16.956ZM158.919 17.028C158.919 15.804 158.679 14.76 158.199 13.896C157.719 13.008 157.071 12.336 156.255 11.88C155.439 11.4 154.563 11.16 153.627 11.16C152.691 11.16 151.827 11.388 151.035 11.844C150.243 12.3 149.595 12.972 149.091 13.86C148.611 14.724 148.371 15.756 148.371 16.956C148.371 18.156 148.611 19.212 149.091 20.124C149.595 21.012 150.243 21.696 151.035 22.176C151.851 22.656 152.715 22.896 153.627 22.896C154.563 22.896 155.439 22.668 156.255 22.212C157.071 21.732 157.719 21.06 158.199 20.196C158.679 19.308 158.919 18.252 158.919 17.028Z" fill="#111111"/>
</svg>
