<svg width="79" height="79" viewBox="0 0 79 79" fill="none" xmlns="http://www.w3.org/2000/svg">
<path d="M4.9375 17.2812C4.9375 15.317 5.7178 13.4332 7.10674 12.0442C8.49568 10.6553 10.3795 9.875 12.3438 9.875H25.991C30.7211 9.875 34.681 12.64 37.4016 15.721C39.4259 18.012 41.87 19.75 44.4375 19.75H66.6562C68.6205 19.75 70.5043 20.5303 71.8933 21.9192C73.2822 23.3082 74.0625 25.192 74.0625 27.1562V61.7188C74.0625 63.683 73.2822 65.5668 71.8933 66.9558C70.5043 68.3447 68.6205 69.125 66.6562 69.125H12.3438C10.3795 69.125 8.49568 68.3447 7.10674 66.9558C5.7178 65.5668 4.9375 63.683 4.9375 61.7188V17.2812ZM12.3438 14.8125C11.689 14.8125 11.0611 15.0726 10.5981 15.5356C10.1351 15.9986 9.875 16.6265 9.875 17.2812V29.625H69.125V27.1562C69.125 26.5015 68.8649 25.8736 68.4019 25.4106C67.9389 24.9476 67.311 24.6875 66.6562 24.6875H44.4375C39.6778 24.6875 35.9944 21.5818 33.7034 18.9896C31.4716 16.4616 28.7362 14.8125 25.991 14.8125H12.3438ZM69.125 34.5625H9.875V61.7188C9.875 62.3735 10.1351 63.0014 10.5981 63.4644C11.0611 63.9274 11.689 64.1875 12.3438 64.1875H66.6562C67.311 64.1875 67.9389 63.9274 68.4019 63.4644C68.8649 63.0014 69.125 62.3735 69.125 61.7188V34.5625Z" fill="#B6ED1F"/>
</svg>
