<svg width="79" height="59" viewBox="0 0 79 59" fill="none" xmlns="http://www.w3.org/2000/svg">
<path d="M74.0625 59C74.0625 59 79 59 79 54.0833C79 49.1667 74.0625 34.4167 54.3125 34.4167C34.5625 34.4167 29.625 49.1667 29.625 54.0833C29.625 59 34.5625 59 34.5625 59H74.0625ZM34.6711 54.0833L34.5625 54.0637C34.5674 52.7657 35.3871 48.9995 38.315 45.607C41.0405 42.4259 45.8299 39.3333 54.3125 39.3333C62.7902 39.3333 67.5796 42.4308 70.31 45.607C73.2379 48.9995 74.0526 52.7706 74.0625 54.0637L74.023 54.0735L73.9539 54.0833H34.6711ZM54.3125 24.5833C56.9315 24.5833 59.4433 23.5473 61.2952 21.7032C63.1471 19.8591 64.1875 17.358 64.1875 14.75C64.1875 12.142 63.1471 9.64089 61.2952 7.79678C59.4433 5.95267 56.9315 4.91667 54.3125 4.91667C51.6935 4.91667 49.1817 5.95267 47.3298 7.79678C45.4779 9.64089 44.4375 12.142 44.4375 14.75C44.4375 17.358 45.4779 19.8591 47.3298 21.7032C49.1817 23.5473 51.6935 24.5833 54.3125 24.5833ZM69.125 14.75C69.125 16.687 68.7419 18.605 67.9975 20.3946C67.2531 22.1841 66.162 23.8102 64.7865 25.1798C63.4111 26.5495 61.7781 27.636 59.981 28.3772C58.1839 29.1185 56.2577 29.5 54.3125 29.5C52.3673 29.5 50.4411 29.1185 48.644 28.3772C46.8469 27.636 45.2139 26.5495 43.8385 25.1798C42.463 23.8102 41.3719 22.1841 40.6275 20.3946C39.8831 18.605 39.5 16.687 39.5 14.75C39.5 10.8381 41.0606 7.08634 43.8385 4.32018C46.6164 1.55401 50.384 0 54.3125 0C58.241 0 62.0086 1.55401 64.7865 4.32018C67.5644 7.08634 69.125 10.8381 69.125 14.75ZM34.2465 35.7933C32.2703 35.1783 30.2348 34.7713 28.1734 34.5789C27.0149 34.4664 25.8515 34.4123 24.6875 34.4167C4.9375 34.4167 0 49.1667 0 54.0833C0 57.3611 1.64583 59 4.9375 59H25.754C25.0224 57.465 24.6574 55.7822 24.6875 54.0833C24.6875 49.1175 26.5489 44.0435 30.0694 39.8053C31.2692 38.3598 32.6665 37.0077 34.2465 35.7933ZM24.2925 39.3333C21.3721 43.7064 19.7937 48.8317 19.75 54.0833H4.9375C4.9375 52.805 5.74725 49.0192 8.69 45.607C11.3809 42.48 16.0568 39.4317 24.2925 39.3383V39.3333ZM7.40625 17.2083C7.40625 13.2964 8.96685 9.54467 11.7447 6.77851C14.5226 4.01235 18.2902 2.45833 22.2188 2.45833C26.1473 2.45833 29.9149 4.01235 32.6928 6.77851C35.4707 9.54467 37.0312 13.2964 37.0312 17.2083C37.0312 21.1203 35.4707 24.872 32.6928 27.6382C29.9149 30.4043 26.1473 31.9583 22.2188 31.9583C18.2902 31.9583 14.5226 30.4043 11.7447 27.6382C8.96685 24.872 7.40625 21.1203 7.40625 17.2083ZM22.2188 7.375C19.5997 7.375 17.088 8.41101 15.2361 10.2551C13.3841 12.0992 12.3438 14.6004 12.3438 17.2083C12.3438 19.8163 13.3841 22.3174 15.2361 24.1615C17.088 26.0057 19.5997 27.0417 22.2188 27.0417C24.8378 27.0417 27.3495 26.0057 29.2014 24.1615C31.0534 22.3174 32.0937 19.8163 32.0938 17.2083C32.0937 14.6004 31.0534 12.0992 29.2014 10.2551C27.3495 8.41101 24.8378 7.375 22.2188 7.375Z" fill="#B6ED1F"/>
</svg>
