<svg width="64" height="64" viewBox="0 0 64 64" fill="none" xmlns="http://www.w3.org/2000/svg">
<g clip-path="url(#clip0_15_17)">
<path d="M14 0C14.5304 0 15.0391 0.210714 15.4142 0.585786C15.7893 0.960859 16 1.46957 16 2V4H48V2C48 1.46957 48.2107 0.960859 48.5858 0.585786C48.9609 0.210714 49.4696 0 50 0C50.5304 0 51.0391 0.210714 51.4142 0.585786C51.7893 0.960859 52 1.46957 52 2V4H56C58.1217 4 60.1566 4.84285 61.6569 6.34315C63.1571 7.84344 64 9.87827 64 12V56C64 58.1217 63.1571 60.1566 61.6569 61.6569C60.1566 63.1571 58.1217 64 56 64H8C5.87827 64 3.84344 63.1571 2.34315 61.6569C0.842855 60.1566 0 58.1217 0 56V12C0 9.87827 0.842855 7.84344 2.34315 6.34315C3.84344 4.84285 5.87827 4 8 4H12V2C12 1.46957 12.2107 0.960859 12.5858 0.585786C12.9609 0.210714 13.4696 0 14 0ZM8 8C6.93913 8 5.92172 8.42143 5.17157 9.17157C4.42143 9.92172 4 10.9391 4 12V16H60V12C60 10.9391 59.5786 9.92172 58.8284 9.17157C58.0783 8.42143 57.0609 8 56 8H8ZM60 20H4V56C4 57.0609 4.42143 58.0783 5.17157 58.8284C5.92172 59.5786 6.93913 60 8 60H56C57.0609 60 58.0783 59.5786 58.8284 58.8284C59.5786 58.0783 60 57.0609 60 56V20Z" fill="#B6ED1F"/>
<path d="M44 30C44 29.4696 44.2107 28.9609 44.5858 28.5858C44.9609 28.2107 45.4696 28 46 28H50C50.5304 28 51.0391 28.2107 51.4142 28.5858C51.7893 28.9609 52 29.4696 52 30V34C52 34.5304 51.7893 35.0391 51.4142 35.4142C51.0391 35.7893 50.5304 36 50 36H46C45.4696 36 44.9609 35.7893 44.5858 35.4142C44.2107 35.0391 44 34.5304 44 34V30ZM32 30C32 29.4696 32.2107 28.9609 32.5858 28.5858C32.9609 28.2107 33.4696 28 34 28H38C38.5304 28 39.0391 28.2107 39.4142 28.5858C39.7893 28.9609 40 29.4696 40 30V34C40 34.5304 39.7893 35.0391 39.4142 35.4142C39.0391 35.7893 38.5304 36 38 36H34C33.4696 36 32.9609 35.7893 32.5858 35.4142C32.2107 35.0391 32 34.5304 32 34V30ZM24 42C24 41.4696 24.2107 40.9609 24.5858 40.5858C24.9609 40.2107 25.4696 40 26 40H30C30.5304 40 31.0391 40.2107 31.4142 40.5858C31.7893 40.9609 32 41.4696 32 42V46C32 46.5304 31.7893 47.0391 31.4142 47.4142C31.0391 47.7893 30.5304 48 30 48H26C25.4696 48 24.9609 47.7893 24.5858 47.4142C24.2107 47.0391 24 46.5304 24 46V42ZM12 42C12 41.4696 12.2107 40.9609 12.5858 40.5858C12.9609 40.2107 13.4696 40 14 40H18C18.5304 40 19.0391 40.2107 19.4142 40.5858C19.7893 40.9609 20 41.4696 20 42V46C20 46.5304 19.7893 47.0391 19.4142 47.4142C19.0391 47.7893 18.5304 48 18 48H14C13.4696 48 12.9609 47.7893 12.5858 47.4142C12.2107 47.0391 12 46.5304 12 46V42Z" fill="#B6ED1F"/>
</g>
<defs>
<clipPath id="clip0_15_17">
<rect width="64" height="64" fill="white"/>
</clipPath>
</defs>
</svg>
